<svg height="3534" width="720" xmlns="http://www.w3.org/2000/svg">
<rect height="3534" fill="#555" width="720"></rect>
<text fill="#7f7" font-family="Courier New" font-size="12" xml:space="preserve">
<tspan x="10" y="26"></tspan>
<tspan x="10" y="42">&gt; npmdoc-xlsx-to-json@0.0.1 test /home/travis/build/npmdoc/node-npmdoc-xlsx-to-json</tspan>
<tspan x="10" y="58">&gt; (set -e; export PORT=$(utility2 shServerPortRandom); utility2 test test.js)</tspan>
<tspan x="10" y="74"></tspan>
<tspan x="10" y="90"></tspan>
<tspan x="10" y="106">[MODE_BUILD=npmTest] - 2017-04-07T15:13:25Z - npm-testing /home/travis/build/npmdoc/node-npmdoc-\</tspan>
<tspan x="10" y="122">xlsx-to-json</tspan>
<tspan x="10" y="138"></tspan>
<tspan x="10" y="154"></tspan>
<tspan x="10" y="170">covering $ /home/travis/.nvm/versions/node/v6.10.2/bin/node /home/travis/build/npmdoc/node-npmdo\</tspan>
<tspan x="10" y="186">c-xlsx-to-json/test.js</tspan>
<tspan x="10" y="202">merging file:///home/travis/build/npmdoc/node-npmdoc-xlsx-to-json/tmp/build/test-report.json to \</tspan>
<tspan x="10" y="218">test-report</tspan>
<tspan x="10" y="234">&gt; server listening on http-port 54653</tspan>
<tspan x="10" y="250">created apidoc file:///home/travis/build/npmdoc/node-npmdoc-xlsx-to-json/tmp/build/apidoc.html</tspan>
<tspan x="10" y="266"></tspan>
<tspan x="10" y="282"></tspan>
<tspan x="10" y="298">browserTest - created electron entry-page /home/travis/build/npmdoc/node-npmdoc-xlsx-to-json/tmp\</tspan>
<tspan x="10" y="314">/electron.15b48fa2dba0.7bf98ed307e1f.html</tspan>
<tspan x="10" y="330"></tspan>
<tspan x="10" y="346">[node test-case 1 of 6 passed] - testCase_buildLib_default</tspan>
<tspan x="10" y="362">[node test-case 2 of 6 passed] - testCase_buildReadme_default</tspan>
<tspan x="10" y="378">[node test-case 3 of 6 passed] - testCase_buildTest_default</tspan>
<tspan x="10" y="394"></tspan>
<tspan x="10" y="410">browserTest - created electron entry-page /home/travis/build/npmdoc/node-npmdoc-xlsx-to-json/tmp\</tspan>
<tspan x="10" y="426">/electron.15b48fa2e2c0.24d3dbcb09d28.html</tspan>
<tspan x="10" y="442"></tspan>
<tspan x="10" y="458">[ { '': '',</tspan>
<tspan x="10" y="474">    type: '',</tspan>
<tspan x="10" y="490">    name: 'start',</tspan>
<tspan x="10" y="506">    label: 'How would you characterize your experience as an interviewer/interviewee?',</tspan>
<tspan x="10" y="522">    tags: 'exp_tags' },</tspan>
<tspan x="10" y="538">  { '': '',</tspan>
<tspan x="10" y="554">    type: '',</tspan>
<tspan x="10" y="570">    name: 'purposes',</tspan>
<tspan x="10" y="586">    label: 'What are some of the purposes of the interviews you\'ve been involved in? (data gath\</tspan>
<tspan x="10" y="602">ering, recruiting, health diagnostics, investigative journalism)',</tspan>
<tspan x="10" y="618">    tags: 'none' },</tspan>
<tspan x="10" y="634">  { '': '',</tspan>
<tspan x="10" y="650">    type: '',</tspan>
<tspan x="10" y="666">    name: 'duration',</tspan>
<tspan x="10" y="682">    label: 'How long do your interviews usually last? Did you usually have an idea of how far al\</tspan>
<tspan x="10" y="698">ong you are in the interview?',</tspan>
<tspan x="10" y="714">    tags: '' },</tspan>
<tspan x="10" y="730">  { '': '',</tspan>
<tspan x="10" y="746">    type: '',</tspan>
<tspan x="10" y="762">    name: 'sittings',</tspan>
<tspan x="10" y="778">    label: 'Have you participated in interviews that took place over multiple sittings? Does thi\</tspan>
<tspan x="10" y="794">s seem to be a common case?',</tspan>
<tspan x="10" y="810">    tags: '' },</tspan>
<tspan x="10" y="826">  { '': '',</tspan>
<tspan x="10" y="842">    type: '',</tspan>
<tspan x="10" y="858">    name: 'medium',</tspan>
<tspan x="10" y="874">    label: 'Have your interviews been in person? on the phone? written response?',</tspan>
<tspan x="10" y="890">    tags: '' },</tspan>
<tspan x="10" y="906">  { '': '',</tspan>
<tspan x="10" y="922">    type: '',</tspan>
<tspan x="10" y="938">    name: 'admin',</tspan>
<tspan x="10" y="954">    label: 'Have you been involved in any interviewing projects in an administrative capacity? W\</tspan>
<tspan x="10" y="970">hat tasks did you perform?',</tspan>
<tspan x="10" y="986">    tags: 'admin_tasks' },</tspan>
<tspan x="10" y="1002">  { '': '',</tspan>
<tspan x="10" y="1018">    type: 'begin branch',</tspan>
<tspan x="10" y="1034">    name: '',</tspan>
<tspan x="10" y="1050">    label: 'Administrative experience follow-up questions.',</tspan>
<tspan x="10" y="1066">    tags: '' },</tspan>
<tspan x="10" y="1082">  { '': '',</tspan>
<tspan x="10" y="1098">    type: '',</tspan>
<tspan x="10" y="1114">    name: 'challenges',</tspan>
<tspan x="10" y="1130">    label: 'Which tasks do you find the most challenging or time consuming?',</tspan>
<tspan x="10" y="1146">    tags: '' },</tspan>
<tspan x="10" y="1162">  { '': '',</tspan>
<tspan x="10" y="1178">    type: '',</tspan>
<tspan x="10" y="1194">    name: 'experience',</tspan>
<tspan x="10" y="1210">    label: 'What level of training or experience is typically required in your interviews?',</tspan>
<tspan x="10" y="1226">    tags: '' },</tspan>
<tspan x="10" y="1242">  { '': '',</tspan>
<tspan x="10" y="1258">    type: '',</tspan>
<tspan x="10" y="1274">    name: 'branching',</tspan>
<tspan x="10" y="1290">    label: 'Have you administered any interviews with branching logic?',</tspan>
<tspan x="10" y="1306">    tags: '' },</tspan>
<tspan x="10" y="1322">  { '': '',</tspan>
<tspan x="10" y="1338">    type: '',</tspan>
<tspan x="10" y="1354">    name: 'follow-ups',</tspan>
<tspan x="10" y="1370">    label: 'Do you tend to ask follow-up questions beyond what is suggested in the survey?\r\nHo\</tspan>
<tspan x="10" y="1386">w/when do they usually occur? How are they dealt with in coding?',</tspan>
<tspan x="10" y="1402">    tags: '' },</tspan>
<tspan x="10" y="1418">  { '': '',</tspan>
<tspan x="10" y="1434">    type: '',</tspan>
<tspan x="10" y="1450">    name: 'recording',</tspan>
<tspan x="10" y="1466">    label: 'Are your interviews recorded?\r\nHave you encountered any limitations in being allow\</tspan>
<tspan x="10" y="1482">ed to record?',</tspan>
<tspan x="10" y="1498">    tags: '' },</tspan>
<tspan x="10" y="1514">  { '': '',</tspan>
<tspan x="10" y="1530">    type: '',</tspan>
<tspan x="10" y="1546">    name: 'notes',</tspan>
<tspan x="10" y="1562">    label: 'Do you take notes during your interviews?',</tspan>
<tspan x="10" y="1578">    tags: '' },</tspan>
<tspan x="10" y="1594">  { '': '',</tspan>
<tspan x="10" y="1610">    type: '',</tspan>
<tspan x="10" y="1626">    name: 'contingencies',</tspan>
<tspan x="10" y="1642">    label: 'Have you ever needed to discard recordings/notes that you collected?',</tspan>
<tspan x="10" y="1658">    tags: '' },</tspan>
<tspan x="10" y="1674">  { '': '', type: 'end branch', name: '', label: '', tags: '' },</tspan>
<tspan x="10" y="1690">  { '': '',</tspan>
<tspan x="10" y="1706">    type: 'begin branch',</tspan>
<tspan x="10" y="1722">    name: '',</tspan>
<tspan x="10" y="1738">    label: 'No administrative experience.',</tspan>
<tspan x="10" y="1754">    tags: '' },</tspan>
<tspan x="10" y="1770">  { '': '', type: 'end branch', name: '', label: '', tags: '' },</tspan>
<tspan x="10" y="1786">  { '': '',</tspan>
<tspan x="10" y="1802">    type: '',</tspan>
<tspan x="10" y="1818">    name: 'comments',</tspan>
<tspan x="10" y="1834">    label: 'Do you have any comments about the tool I am using? About the interview experience a\</tspan>
<tspan x="10" y="1850">s a whole?',</tspan>
<tspan x="10" y="1866">    tags: '' },</tspan>
<tspan x="10" y="1882">  { '': '', type: '', name: '', label: '', tags: '' },</tspan>
<tspan x="10" y="1898">  { '': '', type: '', name: '', label: '', tags: '' },</tspan>
<tspan x="10" y="1914">  { '': '', type: '', name: '', label: '', tags: '' },</tspan>
<tspan x="10" y="1930">  { '': '', type: '', name: '', label: '', tags: '' } ]</tspan>
<tspan x="10" y="1946">Xlib:  extension "RANDR" missing on display ":99.0".</tspan>
<tspan x="10" y="1962">Xlib:  extension "RANDR" missing on display ":99.0".</tspan>
<tspan x="10" y="1978">&gt; merging file:///home/travis/build/npmdoc/node-npmdoc-xlsx-to-json/tmp/build/test-report.json t\</tspan>
<tspan x="10" y="1994">o test-report</tspan>
<tspan x="10" y="2010">server listening on http-port 41377</tspan>
<tspan x="10" y="2026">Xlib:  extension "RANDR" missing on display ":99.0".</tspan>
<tspan x="10" y="2042">[5921:0407/151328:WARNING:audio_manager.cc(314)] Multiple instances of AudioManager detected</tspan>
<tspan x="10" y="2058">[5921:0407/151328:WARNING:audio_manager.cc(275)] Multiple instances of AudioManager detected</tspan>
<tspan x="10" y="2074">merging file:///home/travis/build/npmdoc/node-npmdoc-xlsx-to-json/tmp/build/test-report.json to \</tspan>
<tspan x="10" y="2090">test-report</tspan>
<tspan x="10" y="2106">Xlib:  extension "RANDR" missing on display ":99.0".</tspan>
<tspan x="10" y="2122">[5959:0407/151328:ERROR:sandbox_linux.cc(343)] InitializeSandbox() called with multiple threads \</tspan>
<tspan x="10" y="2138">in process gpu-process. </tspan>
<tspan x="10" y="2154">[5921:0407/151328:ERROR:browser_gpu_channel_host_factory.cc(131)] Failed to create channel.</tspan>
<tspan x="10" y="2170">[5928:0407/151328:WARNING:audio_manager.cc(314)] Multiple instances of AudioManager detected</tspan>
<tspan x="10" y="2186">[5928:0407/151328:WARNING:audio_manager.cc(275)] Multiple instances of AudioManager detected</tspan>
<tspan x="10" y="2202">[5982:0407/151329:ERROR:sandbox_linux.cc(343)] InitializeSandbox() called with multiple threads \</tspan>
<tspan x="10" y="2218">in process gpu-process. </tspan>
<tspan x="10" y="2234">[5928:0407/151329:ERROR:browser_gpu_channel_host_factory.cc(131)] Failed to create channel.</tspan>
<tspan x="10" y="2250"></tspan>
<tspan x="10" y="2266">browserTest - opened url /home/travis/build/npmdoc/node-npmdoc-xlsx-to-json/tmp/build/apidoc.htm\</tspan>
<tspan x="10" y="2282">l</tspan>
<tspan x="10" y="2298"></tspan>
<tspan x="10" y="2314"></tspan>
<tspan x="10" y="2330">browserTest - opened url http://127.0.0.1:54653?modeTest=1</tspan>
<tspan x="10" y="2346"></tspan>
<tspan x="10" y="2362">[5928:0407/151331:INFO:CONSOLE(250)] "----------|-----------|-----------|-----------|-----------\</tspan>
<tspan x="10" y="2378">|</tspan>
<tspan x="10" y="2394">File      |   % Stmts |% Branches |   % Funcs |   % Lines |</tspan>
<tspan x="10" y="2410">----------|-----------|-----------|-----------|-----------|</tspan>
<tspan x="10" y="2426">----------|-----------|-----------|-----------|-----------|</tspan>
<tspan x="10" y="2442">All files |       100 |       100 |       100 |       100 |</tspan>
<tspan x="10" y="2458">----------|-----------|-----------|-----------|-----------|</tspan>
<tspan x="10" y="2474">", source: file:///home/travis/build/npmdoc/node-npmdoc-xlsx-to-json/tmp/electron.15b48fa2e2c0.2\</tspan>
<tspan x="10" y="2490">4d3dbcb09d28.html (250)</tspan>
<tspan x="10" y="2506">[5928:0407/151331:INFO:CONSOLE(250)] "created coverage file:///tmp/build/coverage.html/index.htm\</tspan>
<tspan x="10" y="2522">l", source: file:///home/travis/build/npmdoc/node-npmdoc-xlsx-to-json/tmp/electron.15b48fa2e2c0.\</tspan>
<tspan x="10" y="2538">24d3dbcb09d28.html (250)</tspan>
<tspan x="10" y="2554">[node test-case 4 of 6 passed] - testCase_buildApp_default</tspan>
<tspan x="10" y="2570"></tspan>
<tspan x="10" y="2586">browserTest - created screenCapture file:///home/travis/build/npmdoc/node-npmdoc-xlsx-to-json/tm\</tspan>
<tspan x="10" y="2602">p/build/screenCapture.npmTest.browser._2Fhome_2Ftravis_2Fbuild_2Fnpmdoc_2Fnode-npmdoc-xlsx-to-js\</tspan>
<tspan x="10" y="2618">on_2Ftmp_2Fbuild_2Fapidoc.html.png</tspan>
<tspan x="10" y="2634"></tspan>
<tspan x="10" y="2650">browserTest - created screenCapture file:///home/travis/build/npmdoc/node-npmdoc-xlsx-to-json/tm\</tspan>
<tspan x="10" y="2666">p/build/screenCapture.npmTest.browser._2Fhome_2Ftravis_2Fbuild_2Fnpmdoc_2Fnode-npmdoc-xlsx-to-js\</tspan>
<tspan x="10" y="2682">on_2Ftmp_2Fbuild_2Fapidoc.html.html</tspan>
<tspan x="10" y="2698"></tspan>
<tspan x="10" y="2714">browserTest - exit-code 0 - /home/travis/build/npmdoc/node-npmdoc-xlsx-to-json/tmp/build/apidoc.\</tspan>
<tspan x="10" y="2730">html</tspan>
<tspan x="10" y="2746"></tspan>
<tspan x="10" y="2762">[node test-case 5 of 6 passed] - testCase_buildApidoc_default</tspan>
<tspan x="10" y="2778"></tspan>
<tspan x="10" y="2794">browserTest - created screenCapture file:///home/travis/build/npmdoc/node-npmdoc-xlsx-to-json/tm\</tspan>
<tspan x="10" y="2810">p/build/screenCapture.npmTest.browser..png</tspan>
<tspan x="10" y="2826"></tspan>
<tspan x="10" y="2842">browserTest - created screenCapture file:///home/travis/build/npmdoc/node-npmdoc-xlsx-to-json/tm\</tspan>
<tspan x="10" y="2858">p/build/screenCapture.npmTest.browser..html</tspan>
<tspan x="10" y="2874"></tspan>
<tspan x="10" y="2890">browserTest - exit-code 0 - http://127.0.0.1:54653?modeTest=1</tspan>
<tspan x="10" y="2906"></tspan>
<tspan x="10" y="2922"></tspan>
<tspan x="10" y="2938">browserTest - merged coverage from /home/travis/build/npmdoc/node-npmdoc-xlsx-to-json/tmp/covera\</tspan>
<tspan x="10" y="2954">ge.npmTest.browser.%2F.json</tspan>
<tspan x="10" y="2970"></tspan>
<tspan x="10" y="2986"></tspan>
<tspan x="10" y="3002">browserTest - merging test-report from /home/travis/build/npmdoc/node-npmdoc-xlsx-to-json/tmp/te\</tspan>
<tspan x="10" y="3018">st-report.npmTest.browser.%2F.json</tspan>
<tspan x="10" y="3034"></tspan>
<tspan x="10" y="3050">[node test-case 6 of 6 passed] - testCase_webpage_default</tspan>
<tspan x="10" y="3066">---------------------------------|-----------|-----------|-----------|-----------|</tspan>
<tspan x="10" y="3082">File                             |   % Stmts |% Branches |   % Funcs |   % Lines |</tspan>
<tspan x="10" y="3098">---------------------------------|-----------|-----------|-----------|-----------|</tspan>
<tspan x="10" y="3114">   node-npmdoc-xlsx-to-json/     |       100 |       100 |       100 |       100 |</tspan>
<tspan x="10" y="3130">      example.js                 |       100 |       100 |       100 |       100 |</tspan>
<tspan x="10" y="3146">      lib.npmdoc_xlsx_to_json.js |       100 |       100 |       100 |       100 |</tspan>
<tspan x="10" y="3162">      test.js                    |       100 |       100 |       100 |       100 |</tspan>
<tspan x="10" y="3178">---------------------------------|-----------|-----------|-----------|-----------|</tspan>
<tspan x="10" y="3194">All files                        |       100 |       100 |       100 |       100 |</tspan>
<tspan x="10" y="3210">---------------------------------|-----------|-----------|-----------|-----------|</tspan>
<tspan x="10" y="3226"></tspan>
<tspan x="10" y="3242">created coverage file:///home/travis/build/npmdoc/node-npmdoc-xlsx-to-json/tmp/build/coverage.ht\</tspan>
<tspan x="10" y="3258">ml/index.html</tspan>
<tspan x="10" y="3274">merging file:///home/travis/build/npmdoc/node-npmdoc-xlsx-to-json/tmp/build/test-report.json to \</tspan>
<tspan x="10" y="3290">test-report</tspan>
<tspan x="10" y="3306"></tspan>
<tspan x="10" y="3322">-------------------------------------------------------</tspan>
<tspan x="10" y="3338">| test-report - buildNpmdoc - node - linux v6.10.2 - 2017-04-07T15:12:44.257Z</tspan>
<tspan x="10" y="3354">|   57811 ms            0 failed        6 passed      |</tspan>
<tspan x="10" y="3370">-------------------------------------------------------</tspan>
<tspan x="10" y="3386"></tspan>
<tspan x="10" y="3402">created test-report file:///home/travis/build/npmdoc/node-npmdoc-xlsx-to-json/tmp/build/test-rep\</tspan>
<tspan x="10" y="3418">ort.html</tspan>
<tspan x="10" y="3434"></tspan>
<tspan x="10" y="3450"></tspan>
<tspan x="10" y="3466">npmTest - 0 failed tests</tspan>
<tspan x="10" y="3482"></tspan>
<tspan x="10" y="3498"></tspan>
<tspan x="10" y="3514">[MODE_BUILD=npmTest] - 2017-04-07T15:13:46Z - EXIT_CODE - 0</tspan>
</text>
</svg>
